<?xml version="1.0" standalone="no"?>
<!DOCTYPE svg PUBLIC "-//W3C//DTD SVG 20010904//EN"
 "http://www.w3.org/TR/2001/REC-SVG-20010904/DTD/svg10.dtd">
<svg version="1.0" xmlns="http://www.w3.org/2000/svg"
 width="700.000000pt" height="700.000000pt" viewBox="0 0 700.000000 700.000000"
 preserveAspectRatio="xMidYMid meet">
<metadata>
Created by potrace 1.14, written by Peter Selinger 2001-2017
</metadata>
<g transform="translate(0.000000,700.000000) scale(0.100000,-0.100000)"
fill="#000000" stroke="none">
<path d="M2360 6987 c-14 -6 -70 -33 -124 -59 -450 -222 -835 -722 -936 -1217
-27 -131 -35 -318 -21 -479 11 -129 91 -699 111 -795 15 -71 15 -72 -46 -91
-70 -22 -137 -81 -160 -142 -13 -35 -16 -64 -11 -138 10 -170 57 -295 155
-414 86 -105 158 -267 191 -431 11 -55 30 -119 41 -141 40 -79 127 -144 212
-158 l40 -7 49 -178 c56 -207 101 -309 203 -462 134 -200 290 -370 448 -487
46 -34 68 -58 72 -76 11 -57 26 -182 36 -296 5 -65 11 -121 14 -123 14 -14 17
83 7 222 -6 87 -11 166 -11 177 0 16 10 13 80 -22 44 -22 133 -74 198 -114
250 -157 391 -206 592 -206 201 0 342 49 592 206 65 40 154 92 199 115 l82 41
-7 -91 c-11 -165 -16 -276 -11 -266 5 11 49 261 60 336 5 44 11 50 73 97 157
116 316 289 445 482 102 153 150 261 206 466 l48 177 53 14 c109 28 197 124
220 242 41 209 102 352 212 494 77 101 114 181 133 291 30 176 17 257 -53 329
-35 36 -121 77 -162 77 -24 0 -25 -10 5 140 38 194 48 340 42 570 -9 304 -43
556 -112 825 -97 376 -253 681 -421 821 -114 96 -283 160 -451 171 l-92 6 -46
53 -46 54 -1042 -1 c-745 0 -1049 -4 -1067 -12z m2273 -811 c100 -149 245
-290 350 -340 40 -19 93 -41 119 -51 75 -26 87 -41 104 -125 9 -41 31 -120 49
-175 52 -156 57 -209 62 -707 l5 -458 -73 0 c-72 1 -74 2 -94 33 -31 50 -74
64 -225 75 -106 8 -154 16 -225 40 -50 17 -130 38 -179 47 -111 19 -357 35
-542 35 -128 0 -144 -2 -168 -21 -30 -24 -36 -78 -10 -100 14 -12 13 -14 -8
-22 -64 -24 -512 -25 -595 -1 -20 5 -21 8 -7 21 9 10 14 29 12 51 -2 28 -11
41 -37 59 -40 27 -85 29 -361 13 -233 -14 -364 -34 -490 -76 -87 -30 -129 -37
-245 -46 -157 -11 -199 -25 -230 -75 -19 -31 -22 -32 -92 -33 l-72 0 -5 43
c-11 94 -16 571 -6 702 21 285 63 486 127 615 58 115 105 136 243 110 128 -24
639 67 1075 192 77 22 248 73 380 114 132 41 247 77 255 79 8 3 -5 -13 -30
-35 -46 -42 -124 -94 -220 -148 -41 -24 -49 -32 -32 -32 47 0 180 32 259 64
45 18 79 28 76 22 -4 -6 -20 -28 -36 -49 -16 -21 -28 -39 -26 -41 2 -2 31 2
65 9 83 18 197 67 302 130 48 29 88 51 90 50 2 -2 -14 -36 -35 -76 -21 -41
-40 -78 -42 -83 -2 -5 31 10 74 33 90 48 216 144 294 225 30 30 57 53 61 51 4
-2 41 -56 83 -119z m-2493 -1786 c0 -5 -4 -10 -8 -10 -16 0 -123 -103 -154
-148 l-32 -47 29 23 c116 88 193 123 331 147 102 19 770 38 829 25 51 -12 85
-37 101 -76 12 -30 13 -52 4 -135 -6 -55 -14 -107 -17 -115 -3 -9 2 -14 15
-14 12 0 23 9 27 20 11 36 22 204 14 232 -5 19 -3 28 8 32 22 9 416 7 428 -2
6 -4 10 -56 10 -117 1 -132 8 -165 36 -165 15 0 19 5 14 18 -3 11 -9 61 -14
113 -11 114 0 154 48 186 l33 23 377 -6 c510 -7 625 -24 753 -110 28 -19 53
-33 55 -31 6 7 -84 103 -121 128 -20 13 -36 26 -36 29 0 3 46 2 103 -3 72 -6
109 -13 127 -26 34 -24 50 -91 52 -218 2 -91 4 -103 20 -103 16 0 18 10 18 85
l0 85 62 0 61 0 -6 -190 c-4 -104 -3 -190 1 -190 5 0 19 11 32 25 13 14 25 23
27 21 10 -10 -251 -1093 -303 -1257 -68 -217 -240 -470 -465 -684 -106 -101
-172 -148 -291 -207 -45 -22 -147 -81 -227 -131 -266 -165 -368 -200 -581
-200 -213 0 -319 36 -581 200 -79 50 -182 110 -229 133 -120 60 -191 111 -294
210 -220 210 -393 465 -459 675 -43 136 -190 734 -280 1137 l-24 107 25 -20
c14 -10 27 -18 28 -16 2 2 -1 64 -7 138 -5 74 -7 160 -4 192 l7 57 64 0 64 0
0 -85 c0 -76 2 -85 19 -85 17 0 19 12 23 128 8 194 17 206 173 220 55 5 103
10 108 11 4 0 7 -3 7 -9z m-700 -155 c15 -44 35 -100 45 -125 11 -25 18 -47
16 -49 -1 -2 1 -7 6 -10 5 -3 21 -26 35 -51 l26 -45 -39 -80 c-45 -92 -64
-171 -55 -227 6 -34 46 -125 73 -165 5 -7 7 32 5 86 -3 74 0 112 12 149 15 43
46 89 46 68 0 -12 87 -393 140 -609 27 -115 50 -211 50 -213 0 -9 -43 -3 -78
12 -42 17 -94 64 -123 110 -10 17 -28 77 -39 134 -12 56 -28 123 -37 149 -27
81 -121 254 -171 316 -92 114 -128 212 -139 380 -5 89 -3 105 15 140 25 50 45
68 102 94 71 33 80 28 110 -64z m4226 61 c30 -14 63 -40 80 -62 28 -36 29 -41
28 -148 -1 -178 -32 -269 -136 -403 -33 -43 -76 -109 -95 -148 -20 -38 -40
-73 -45 -76 -5 -3 -9 -8 -7 -10 1 -2 -7 -33 -19 -69 -12 -36 -31 -110 -42
-164 -22 -109 -41 -146 -100 -199 -36 -33 -113 -67 -125 -55 -3 3 17 97 44
209 27 112 68 287 91 389 53 237 53 236 76 185 15 -32 19 -64 19 -157 0 -65 1
-118 2 -118 2 0 19 32 38 70 60 119 58 183 -12 332 l-36 78 19 41 c10 23 23
47 29 53 11 12 37 90 61 186 9 36 18 71 20 78 5 19 54 14 110 -12z"/>
<path d="M2460 4304 c-85 -22 -227 -97 -314 -165 l-78 -62 24 -21 c14 -11 51
-54 83 -94 32 -40 60 -71 62 -69 2 3 -12 31 -32 63 -19 33 -35 69 -35 81 0 44
147 144 283 190 62 21 86 24 177 21 90 -3 113 -7 161 -31 107 -52 187 -141
199 -222 l6 -40 19 38 c10 20 25 37 32 37 48 0 -59 145 -156 212 -77 54 -162
78 -276 77 -55 0 -125 -7 -155 -15z"/>
<path d="M4220 4301 c-86 -28 -139 -59 -196 -115 -58 -59 -114 -156 -90 -156
8 0 27 -19 41 -42 l26 -43 -6 35 c-5 30 0 45 34 97 47 70 118 123 206 154 85
29 242 23 332 -14 118 -48 253 -144 253 -181 0 -8 -19 -46 -41 -83 -41 -67
-41 -68 -9 -38 17 17 50 55 73 85 23 30 48 60 55 66 11 8 5 18 -28 48 -92 83
-236 162 -350 191 -80 21 -230 19 -300 -4z"/>
<path d="M2515 4225 c-65 -33 -115 -116 -115 -191 0 -51 45 -130 90 -160 82
-54 202 -42 267 28 92 98 56 273 -66 324 -44 18 -138 18 -176 -1z m230 -59
c43 -41 55 -84 29 -103 -16 -11 -19 -11 -27 4 -5 10 -21 30 -34 44 -14 15 -23
36 -21 46 2 11 -3 27 -10 36 -24 29 26 7 63 -27z m-229 -220 c3 -8 19 -20 35
-27 36 -14 37 -52 2 -57 -30 -4 -99 58 -90 81 8 21 46 22 53 3z"/>
<path d="M4278 4211 c-57 -36 -88 -96 -88 -170 0 -115 86 -201 201 -201 170 0
262 179 166 321 -36 53 -90 79 -168 79 -55 0 -72 -5 -111 -29z m259 -55 c46
-48 52 -66 27 -90 -24 -24 -51 -19 -75 14 -12 16 -38 37 -57 46 -27 13 -33 20
-28 37 3 12 6 28 6 36 0 10 10 12 42 8 34 -5 52 -15 85 -51z m-237 -205 c0 -5
16 -18 35 -30 58 -34 37 -77 -26 -51 -36 15 -70 56 -62 76 6 15 53 20 53 5z"/>
<path d="M2774 3844 c-6 -3 -76 -9 -155 -13 l-144 -9 145 3 c80 2 159 8 175
13 20 7 23 10 10 10 -11 0 -25 -2 -31 -4z"/>
<path d="M4220 3835 c36 -8 113 -14 175 -13 l110 1 -125 7 c-69 4 -147 10
-175 13 -43 5 -41 4 15 -8z"/>
<path d="M3113 3065 c3 -77 22 -116 77 -155 29 -21 29 -20 -10 37 -26 38 -45
81 -55 123 l-14 65 2 -70z"/>
<path d="M3851 3032 c-1 -66 -10 -91 -45 -131 l-21 -24 32 17 c17 9 39 26 47
38 19 27 20 92 1 133 -13 29 -13 29 -14 -33z"/>
<path d="M3263 2904 c-10 -26 9 -33 76 -27 l64 6 -34 18 c-43 23 -97 25 -106
3z"/>
<path d="M3640 2902 l-35 -16 60 -7 c44 -5 64 -4 74 6 35 34 -35 47 -99 17z"/>
<path d="M3066 2535 c-9 -26 -7 -32 5 -12 6 10 9 21 6 23 -2 3 -7 -2 -11 -11z"/>
<path d="M3920 2545 c0 -5 5 -17 10 -25 5 -8 10 -10 10 -5 0 6 -5 17 -10 25
-5 8 -10 11 -10 5z"/>
<path d="M2651 2474 c0 -11 3 -14 6 -6 3 7 2 16 -1 19 -3 4 -6 -2 -5 -13z"/>
<path d="M4341 2474 c0 -11 3 -14 6 -6 3 7 2 16 -1 19 -3 4 -6 -2 -5 -13z"/>
<path d="M2581 2324 c0 -11 3 -14 6 -6 3 7 2 16 -1 19 -3 4 -6 -2 -5 -13z"/>
<path d="M4411 2324 c0 -11 3 -14 6 -6 3 7 2 16 -1 19 -3 4 -6 -2 -5 -13z"/>
<path d="M2452 2195 c0 -16 2 -22 5 -12 2 9 2 23 0 30 -3 6 -5 -1 -5 -18z"/>
<path d="M4542 2195 c0 -16 2 -22 5 -12 2 9 2 23 0 30 -3 6 -5 -1 -5 -18z"/>
<path d="M2542 2120 c0 -19 2 -27 5 -17 2 9 2 25 0 35 -3 9 -5 1 -5 -18z"/>
<path d="M4452 2120 c0 -19 2 -27 5 -17 2 9 2 25 0 35 -3 9 -5 1 -5 -18z"/>
<path d="M3540 1960 c-6 -11 -8 -20 -6 -20 3 0 10 9 16 20 6 11 8 20 6 20 -3
0 -10 -9 -16 -20z"/>
<path d="M3285 1699 c-4 -6 -5 -12 -2 -15 2 -3 7 2 10 11 7 17 1 20 -8 4z"/>
<path d="M3391 1684 c0 -11 3 -14 6 -6 3 7 2 16 -1 19 -3 4 -6 -2 -5 -13z"/>
<path d="M3601 1684 c0 -11 3 -14 6 -6 3 7 2 16 -1 19 -3 4 -6 -2 -5 -13z"/>
<path d="M3496 1655 c-3 -9 -6 -22 -5 -28 0 -7 5 -1 10 12 5 13 8 26 5 28 -2
2 -6 -3 -10 -12z"/>
<path d="M3306 1567 c3 -10 9 -15 12 -12 3 3 0 11 -7 18 -10 9 -11 8 -5 -6z"/>
<path d="M3579 1543 c-13 -16 -12 -17 4 -4 9 7 17 15 17 17 0 8 -8 3 -21 -13z"/>
<path d="M1263 4212 c-17 -11 -33 -58 -33 -97 0 -18 14 -87 30 -152 31 -118
74 -208 135 -278 25 -29 26 -29 20 -5 -4 14 -10 34 -15 45 -37 81 -61 309 -46
429 7 51 10 57 27 53 10 -3 17 -1 13 4 -6 11 -114 12 -131 1z"/>
<path d="M1411 3774 c0 -11 3 -14 6 -6 3 7 2 16 -1 19 -3 4 -6 -2 -5 -13z"/>
<path d="M5620 4210 c37 -23 19 -377 -24 -474 -8 -17 -17 -42 -20 -56 -5 -23
-3 -22 24 10 77 94 143 257 157 392 11 107 -10 138 -95 138 -40 0 -52 -3 -42
-10z"/>
</g>
</svg>
